HIERARCHY
ROOT Pelvis
{
	OFFSET -0.217368 -24.078917 2.858379
	CHANNELS 6 Xposition Yposition Zposition Zrotation Yrotation Xrotation 
	JOINT Left_hip
	{
		OFFSET 5.858135 -8.228005 -1.766408
		CHANNELS 3 Zrotation Yrotation Xrotation
		JOINT Left_knee
		{
			OFFSET 4.345143 -38.646942 0.803700
			CHANNELS 3 Zrotation Yrotation Xrotation
			JOINT Left_ankle
			{
				OFFSET -1.479033 -42.687447 -3.742800
				CHANNELS 3 Zrotation Yrotation Xrotation
				JOINT Left_foot
				{
					OFFSET 4.105436 -6.028605 12.204244
					CHANNELS 3 Zrotation Yrotation Xrotation
					End Site
					{
						OFFSET 0.000000 0.000000 0.000000
					}
				}
			}
		}
	}
	JOINT Right_hip
	{
		OFFSET -6.030973 -9.051328 -1.354253
		CHANNELS 3 Zrotation Yrotation Xrotation
		JOINT Right_knee
		{
			OFFSET -4.325663 -38.368790 -0.484304
			CHANNELS 3 Zrotation Yrotation Xrotation
			JOINT Right_ankle
			{
				OFFSET 1.905555 -42.004566 -3.456167
				CHANNELS 3 Zrotation Yrotation Xrotation
				JOINT Right_foot
				{
					OFFSET -3.483987 -6.210554 13.032330
					CHANNELS 3 Zrotation Yrotation Xrotation
					End Site
					{
						OFFSET 0.000000 0.000000 0.000000
					}
				}
			}
		}
	}
	JOINT Spine1
	{
		OFFSET 0.443945 12.440353 -3.838522
		CHANNELS 3 Zrotation Yrotation Xrotation
		JOINT Spine2
		{
			OFFSET 0.448844 13.795640 2.682033
			CHANNELS 3 Zrotation Yrotation Xrotation
			JOINT Spine3
			{
				OFFSET -0.226460 5.603239 0.285504
				CHANNELS 3 Zrotation Yrotation Xrotation
				JOINT Neck
				{
					OFFSET -1.339018 21.163553 -3.346758
					CHANNELS 3 Zrotation Yrotation Xrotation
					JOINT Head
					{
						OFFSET 1.011321 8.893734 5.040987
						CHANNELS 3 Zrotation Yrotation Xrotation
						End Site
						{
							OFFSET 0.000000 0.000000 0.000000
						}
					}
				}
				JOINT Left_collar
				{
					OFFSET 7.170247 11.399971 -1.889817
					CHANNELS 3 Zrotation Yrotation Xrotation
					JOINT Left_shoulder
					{
						OFFSET 12.292140 4.520507 -1.904600
						CHANNELS 3 Zrotation Yrotation Xrotation
						JOINT Left_elbow
						{
							OFFSET 25.533188 -1.564902 -2.294648
							CHANNELS 3 Zrotation Yrotation Xrotation
							JOINT Left_wrist
							{
								OFFSET 26.570929 1.269810 -0.737473
								CHANNELS 3 Zrotation Yrotation Xrotation
								JOINT Left_palm
								{
									OFFSET 8.669054 -1.063602 -1.559429
									CHANNELS 3 Zrotation Yrotation Xrotation
									End Site
									{
										OFFSET 0.000000 0.000000 0.000000
									}
								}
							}
						}
					}
				}
				JOINT Right_collar
				{
					OFFSET -8.295364 11.247234 -2.370738
					CHANNELS 3 Zrotation Yrotation Xrotation
					JOINT Right_shoulder
					{
						OFFSET -11.322830 4.685326 -0.847207
						CHANNELS 3 Zrotation Yrotation Xrotation
						JOINT Right_elbow
						{
							OFFSET -26.012751 -1.436928 -3.126872
							CHANNELS 3 Zrotation Yrotation Xrotation
							JOINT Right_wrist
							{
								OFFSET -26.910841 0.679372 -0.602677
								CHANNELS 3 Zrotation Yrotation Xrotation
								JOINT Right_palm
								{
									OFFSET -8.875370 -0.865157 -1.010708
									CHANNELS 3 Zrotation Yrotation Xrotation
									End Site
									{
										OFFSET 0.000000 0.000000 0.000000
									}
								}
							}
						}
					}
				}
			}
		}
	}
}
MOTION
Frames: 5
Frame Time: 0.016667
-0.217368 71.793175 2.858379 0.100732 -4.395471 0.355953 3.054418 0.229595 4.116683 -3.072217 0.365407 -4.043871 4.163203 11.624996 13.449552 0.000000 0.000000 0.000000 -4.108975 -0.023293 1.852374 3.457874 -0.392595 -2.833249 -1.421133 -7.526723 11.326774 0.000000 0.000000 0.000000 5.314378 -0.390588 3.976706 -5.065169 1.883850 -22.720589 -2.482716 6.754322 25.219046 11.018182 -5.823835 -13.505818 0.000000 0.000000 0.000000 -19.898147 -9.317693 3.001780 -46.649970 -5.504138 -3.080046 -9.840857 -23.833698 2.919245 0.000000 0.000000 0.000000 0.000000 0.000000 0.000000 28.852578 -0.809919 -3.587600 49.503521 4.160837 -2.698039 8.668255 23.398871 2.348724 0.000000 0.000000 0.000000 0.000000 0.000000 0.000000 
-0.209307 71.789192 2.839772 0.268440 -4.430489 0.482982 2.742039 0.256441 4.292019 -3.386896 0.390925 -4.566976 4.015255 11.391841 13.420205 0.000000 0.000000 0.000000 -4.363443 -0.008439 1.774137 3.309018 -0.379095 -2.695423 -1.012285 -6.703653 11.201364 0.000000 0.000000 0.000000 5.245753 -0.340598 3.434860 -5.268310 1.935363 -22.727295 -2.499574 7.133121 25.736246 11.547899 -5.901915 -14.731471 0.000000 0.000000 0.000000 -18.738994 -9.108589 2.898502 -46.934000 -5.882592 -2.956257 -10.244381 -25.244607 3.190459 0.000000 0.000000 0.000000 0.000000 0.000000 0.000000 29.226211 -1.955736 -4.385463 48.913590 4.556336 -2.510009 9.428432 23.232576 2.471968 0.000000 0.000000 0.000000 0.000000 0.000000 0.000000 
-0.202773 71.760429 2.815866 0.083469 -4.475208 0.506424 2.807437 0.233922 4.003934 -3.359372 0.387211 -4.162923 3.622387 10.726221 13.113452 0.000000 0.000000 0.000000 -4.254097 0.011663 1.386461 3.256930 -0.365943 -1.878688 -1.024008 -6.822040 11.527565 0.000000 0.000000 0.000000 5.099609 -0.329703 3.373055 -5.383430 1.977505 -22.222992 -1.956204 7.010211 25.634510 11.184595 -5.441183 -15.924749 0.000000 0.000000 0.000000 -19.163732 -9.265876 2.979638 -46.360294 -6.983662 -2.511304 -9.362807 -26.601166 3.163637 0.000000 0.000000 0.000000 0.000000 0.000000 0.000000 29.594245 -2.121275 -4.548027 48.345690 4.557063 -2.480636 9.338525 24.536113 2.609703 0.000000 0.000000 0.000000 0.000000 0.000000 0.000000 
-0.194721 71.771599 2.771417 0.157079 -4.359153 0.276025 2.873409 0.256659 4.393552 -3.701457 0.412549 -4.405748 3.696216 10.808609 12.942104 0.000000 0.000000 0.000000 -4.390269 -0.027972 2.108171 3.265599 -0.373414 -2.499747 -1.015865 -6.802715 11.514870 0.000000 0.000000 0.000000 5.400482 -0.379744 3.811539 -5.806960 2.069830 -22.813697 -1.932145 7.136986 26.115656 11.634985 -5.564849 -16.638828 0.000000 0.000000 0.000000 -17.944484 -9.762385 3.254112 -46.857010 -7.644258 -2.287237 -9.645001 -30.078254 3.677667 0.000000 0.000000 0.000000 0.000000 0.000000 0.000000 29.547590 -2.663758 -4.897027 47.531483 6.270404 -1.788326 10.567261 26.925051 3.167292 0.000000 0.000000 0.000000 0.000000 0.000000 0.000000 
-0.190872 71.777885 2.666168 0.115897 -4.597495 0.117336 2.676454 0.276516 4.539123 -3.259255 0.380554 -4.285770 3.593467 10.646070 12.931762 0.000000 0.000000 0.000000 -4.274099 -0.025783 1.995988 3.230111 -0.368517 -2.327013 -0.887379 -6.564767 11.543908 0.000000 0.000000 0.000000 5.266374 -0.362460 3.677155 -5.552394 2.015209 -22.446797 -1.796107 7.350815 25.913184 11.279149 -5.437823 -16.224327 0.000000 0.000000 0.000000 -17.556344 -10.154942 3.462429 -45.463234 -9.824101 -1.428707 -8.518636 -35.801716 4.067916 0.000000 0.000000 0.000000 0.000000 0.000000 0.000000 28.915674 -2.087979 -4.426059 46.468864 8.001411 -1.110696 10.811673 32.666511 4.001603 0.000000 0.000000 0.000000 0.000000 0.000000 0.000000 
